<svg id="svg" version="1.1" xmlns="http://www.w3.org/2000/svg" xmlns:xlink="http://www.w3.org/1999/xlink" width="400" height="514.2857142857142" viewBox="0, 0, 400,514.2857142857142"><g id="svgg"><path id="path0" d="M86.184 86.498 C 86.077 86.777,86.036 93.034,86.094 100.403 L 86.200 113.800 100.000 113.800 L 113.800 113.800 113.800 100.000 L 113.800 86.200 100.089 86.095 C 89.296 86.012,86.337 86.098,86.184 86.498 M99.700 257.500 L 84.800 257.610 84.800 314.305 L 84.800 371.000 99.648 370.890 L 114.496 370.781 114.199 342.680 C 113.942 318.299,113.980 314.515,114.486 314.095 C 114.911 313.742,118.744 313.582,128.634 313.505 L 142.200 313.400 142.400 299.467 C 142.582 286.798,142.663 285.488,143.300 285.023 C 143.943 284.553,144.000 283.400,144.000 270.856 L 144.000 257.200 129.300 257.295 C 121.215 257.347,107.895 257.439,99.700 257.500 " stroke="none" fill="#2720d2" fill-rule="evenodd"></path><path id="path1" d="M143.600 42.120 C 143.600 52.880,143.476 56.764,143.120 57.120 C 142.159 58.081,114.123 57.777,113.600 56.800 C 113.185 56.025,112.762 56.000,100.000 56.000 C 87.238 56.000,86.815 56.025,86.400 56.800 C 85.868 57.795,56.663 58.086,56.265 57.100 C 56.154 56.825,56.049 62.945,56.032 70.700 L 56.000 84.800 41.800 84.800 L 27.600 84.800 27.600 99.200 L 27.600 113.600 42.120 113.600 C 52.880 113.600,56.764 113.724,57.120 114.080 C 57.476 114.436,57.600 118.320,57.600 129.080 L 57.600 143.600 71.200 143.600 L 84.800 143.600 84.800 200.000 L 84.800 256.400 114.400 256.400 L 144.000 256.400 144.000 242.800 L 144.000 229.200 129.480 229.200 C 118.720 229.200,114.836 229.076,114.480 228.720 C 113.651 227.891,113.800 171.362,114.633 171.043 C 114.981 170.909,121.731 170.800,129.633 170.800 L 144.000 170.800 143.986 143.100 C 143.974 119.840,143.880 115.240,143.400 114.400 C 142.631 113.054,142.520 86.840,143.280 86.080 C 143.635 85.725,147.476 85.600,158.080 85.600 L 172.400 85.600 172.400 56.600 L 172.400 27.600 158.000 27.600 L 143.600 27.600 143.600 42.120 M114.224 85.368 C 115.449 86.264,115.430 113.750,114.204 114.647 C 113.101 115.453,86.337 115.298,85.520 114.481 C 85.120 114.081,84.972 110.980,84.879 101.081 C 84.745 86.818,84.831 85.724,86.122 85.204 C 87.717 84.562,113.325 84.711,114.224 85.368 M143.867 285.067 C 143.720 285.213,143.600 291.761,143.600 299.618 C 143.600 311.050,143.493 313.991,143.065 314.346 C 142.703 314.647,138.111 314.823,128.765 314.895 L 115.000 315.000 114.895 328.500 L 114.789 342.000 128.533 342.000 C 141.339 342.000,142.321 342.050,142.938 342.731 C 143.527 343.382,143.600 344.974,143.600 357.131 L 143.600 370.800 157.557 370.800 C 169.915 370.800,171.542 370.872,171.757 371.433 C 171.891 371.781,172.003 378.126,172.006 385.533 C 172.009 392.940,172.157 399.227,172.333 399.505 C 172.583 399.900,175.594 399.988,186.027 399.905 L 199.400 399.800 199.600 385.400 L 199.800 371.000 213.953 370.895 C 224.065 370.820,228.262 370.919,228.653 371.244 C 229.671 372.089,229.435 399.365,228.400 400.400 C 227.702 401.098,227.034 427.131,227.700 427.683 C 227.755 427.728,234.460 427.863,242.600 427.983 L 257.400 428.200 257.400 442.800 L 257.400 457.400 242.500 457.505 L 227.600 457.610 227.600 472.005 L 227.600 486.400 242.800 486.400 L 258.000 486.400 258.000 472.205 L 258.000 458.011 271.488 457.905 L 284.977 457.800 285.482 456.800 C 286.332 455.120,286.221 400.970,285.367 400.643 C 285.019 400.509,278.665 400.400,271.247 400.400 C 261.291 400.400,257.634 400.274,257.280 399.920 C 256.586 399.226,256.586 343.174,257.280 342.480 C 257.635 342.125,261.342 342.000,271.480 342.000 L 285.200 342.000 285.200 328.280 C 285.200 318.142,285.325 314.435,285.680 314.080 C 286.035 313.725,289.876 313.600,300.480 313.600 L 314.800 313.600 314.800 342.167 C 314.800 357.879,314.909 371.019,315.043 371.367 C 315.258 371.928,316.920 372.000,329.643 372.000 L 344.000 372.000 344.000 357.800 L 344.000 343.600 358.200 343.600 L 372.400 343.600 372.400 314.200 L 372.400 284.800 357.200 284.800 L 342.000 284.800 342.000 299.000 L 342.000 313.200 328.600 313.200 L 315.200 313.200 315.200 299.000 L 315.200 284.800 286.400 284.800 L 257.600 284.800 257.600 299.320 C 257.600 310.080,257.476 313.964,257.120 314.320 C 256.765 314.675,253.058 314.800,242.920 314.800 L 229.200 314.800 229.200 328.520 C 229.200 338.658,229.075 342.365,228.720 342.720 C 227.770 343.670,171.726 343.383,171.214 342.426 C 170.575 341.233,170.655 315.148,171.300 314.279 C 171.749 313.672,173.195 313.594,185.600 313.502 L 199.400 313.400 199.505 299.100 L 199.610 284.800 171.872 284.800 C 156.616 284.800,144.013 284.920,143.867 285.067 M84.800 386.400 L 84.800 400.800 99.000 400.800 L 113.200 400.800 113.200 443.600 L 113.200 486.400 128.600 486.400 L 144.000 486.400 144.000 472.200 L 144.000 458.000 157.177 458.000 C 170.341 458.000,170.355 457.999,170.977 457.111 C 171.511 456.349,171.600 454.297,171.600 442.758 L 171.600 429.293 170.700 429.052 C 170.205 428.919,163.725 428.808,156.300 428.805 C 148.875 428.802,142.761 428.755,142.713 428.700 C 142.665 428.645,142.530 422.300,142.413 414.600 L 142.200 400.600 128.100 400.495 L 114.000 400.390 114.000 386.195 L 114.000 372.000 99.400 372.000 L 84.800 372.000 84.800 386.400 " stroke="none" fill="#fcfc04" fill-rule="evenodd"></path><path id="path2" d="M142.705 42.100 L 142.600 56.600 128.100 56.600 C 118.611 56.600,113.646 56.738,113.733 57.000 C 113.932 57.598,142.338 57.749,143.053 57.156 C 143.729 56.595,143.879 27.600,143.205 27.600 C 142.954 27.600,142.772 32.893,142.705 42.100 M71.300 56.705 C 61.826 56.772,56.400 56.954,56.400 57.205 C 56.400 57.773,85.865 57.742,86.216 57.173 C 86.594 56.562,87.499 56.591,71.300 56.705 M86.122 85.204 C 84.831 85.724,84.745 86.818,84.879 101.081 C 84.972 110.980,85.120 114.081,85.520 114.481 C 86.337 115.298,113.101 115.453,114.204 114.647 C 115.430 113.750,115.449 86.264,114.224 85.368 C 113.325 84.711,87.717 84.562,86.122 85.204 M113.920 86.080 C 114.607 86.767,114.607 113.233,113.920 113.920 C 112.982 114.858,86.524 114.579,86.014 113.626 C 85.753 113.139,85.600 108.095,85.600 100.000 C 85.600 91.905,85.753 86.861,86.014 86.374 C 86.524 85.421,112.982 85.142,113.920 86.080 M143.280 86.080 C 142.609 86.751,142.596 112.715,143.266 114.186 L 143.733 115.210 157.966 115.105 L 172.200 115.000 172.305 100.300 L 172.410 85.600 158.085 85.600 C 147.477 85.600,143.635 85.725,143.280 86.080 M27.600 114.000 C 27.600 114.259,32.650 114.400,41.951 114.400 C 53.751 114.400,56.385 114.499,56.766 114.959 C 57.103 115.365,57.198 119.347,57.115 129.559 C 57.052 137.282,57.135 143.600,57.300 143.600 C 57.839 143.600,57.662 114.622,57.120 114.080 C 56.500 113.460,27.600 113.381,27.600 114.000 M114.500 171.065 C 113.786 171.353,113.767 228.007,114.480 228.720 C 115.100 229.340,144.000 229.419,144.000 228.800 C 144.000 228.541,138.960 228.400,129.680 228.400 C 119.076 228.400,115.235 228.275,114.880 227.920 C 114.186 227.226,114.186 172.774,114.880 172.080 C 115.235 171.725,119.076 171.600,129.680 171.600 C 138.960 171.600,144.000 171.459,144.000 171.200 C 144.000 170.791,115.502 170.661,114.500 171.065 M84.800 256.800 C 84.800 257.063,94.933 257.200,114.400 257.200 C 133.867 257.200,144.000 257.063,144.000 256.800 C 144.000 256.537,133.867 256.400,114.400 256.400 C 94.933 256.400,84.800 256.537,84.800 256.800 M143.324 285.300 C 143.146 285.575,142.910 292.100,142.800 299.800 L 142.600 313.800 128.945 313.905 C 118.040 313.989,115.199 314.120,114.839 314.553 C 114.521 314.937,114.420 319.107,114.495 328.847 L 114.600 342.600 128.166 342.705 C 137.363 342.777,141.903 342.954,142.266 343.254 C 142.692 343.608,142.800 346.422,142.800 357.200 C 142.800 367.978,142.908 370.792,143.334 371.146 C 143.697 371.446,148.237 371.623,157.434 371.695 L 171.000 371.800 171.352 399.568 C 171.689 426.186,171.673 427.357,170.975 427.868 C 169.972 428.601,144.410 428.650,143.680 427.920 C 143.326 427.566,143.200 423.985,143.200 414.294 C 143.200 405.997,143.047 400.862,142.786 400.374 C 142.389 399.632,141.806 399.600,128.586 399.600 C 121.004 399.600,114.761 399.555,114.713 399.500 C 114.665 399.445,114.530 393.100,114.413 385.400 L 114.200 371.400 99.500 371.295 C 89.778 371.226,84.800 371.327,84.800 371.595 C 84.800 371.861,89.815 372.000,99.400 372.000 L 114.000 372.000 114.000 386.195 L 114.000 400.390 128.100 400.495 L 142.200 400.600 142.413 414.600 C 142.530 422.300,142.665 428.645,142.713 428.700 C 142.761 428.755,148.875 428.802,156.300 428.805 C 163.725 428.808,170.205 428.919,170.700 429.052 L 171.600 429.293 171.600 442.758 C 171.600 454.129,171.506 456.356,170.995 457.086 C 170.477 457.825,170.405 459.995,170.495 472.075 L 170.600 486.200 185.761 486.305 L 200.922 486.410 200.761 429.105 L 200.600 371.800 214.400 371.800 L 228.200 371.800 228.305 385.516 C 228.374 394.518,228.266 399.502,227.991 400.016 C 227.719 400.526,227.712 400.800,227.972 400.800 C 229.311 400.800,229.967 372.334,228.653 371.244 C 228.262 370.919,224.065 370.820,213.953 370.895 L 199.800 371.000 199.600 385.400 L 199.400 399.800 186.027 399.905 C 175.594 399.988,172.583 399.900,172.333 399.505 C 172.157 399.227,172.009 392.940,172.006 385.533 C 172.003 378.126,171.891 371.781,171.757 371.433 C 171.542 370.872,169.915 370.800,157.557 370.800 L 143.600 370.800 143.600 357.062 C 143.600 344.261,143.550 343.279,142.869 342.662 C 142.218 342.073,140.625 342.000,128.463 342.000 L 114.789 342.000 114.895 328.500 L 115.000 315.000 128.765 314.895 C 137.957 314.824,142.705 314.645,143.056 314.354 C 143.492 313.992,144.151 284.799,143.724 284.800 C 143.682 284.800,143.502 285.025,143.324 285.300 M199.505 299.100 L 199.400 313.400 185.600 313.502 C 173.195 313.594,171.749 313.672,171.300 314.279 C 170.655 315.148,170.575 341.233,171.214 342.426 C 171.726 343.383,227.770 343.670,228.720 342.720 C 229.075 342.365,229.200 338.658,229.200 328.520 L 229.200 314.800 242.920 314.800 C 253.058 314.800,256.765 314.675,257.120 314.320 C 257.662 313.778,257.839 284.800,257.300 284.800 C 257.135 284.800,257.054 291.116,257.119 298.835 C 257.207 309.126,257.114 313.022,256.770 313.436 C 256.384 313.901,253.936 314.000,242.800 314.000 C 232.022 314.000,229.208 314.108,228.854 314.534 C 228.554 314.897,228.377 319.437,228.305 328.634 L 228.200 342.200 200.000 342.200 L 171.800 342.200 171.800 328.400 L 171.800 314.600 185.600 314.498 C 198.005 314.406,199.451 314.328,199.900 313.721 C 200.533 312.868,200.635 284.800,200.005 284.800 C 199.754 284.800,199.572 290.026,199.505 299.100 M285.680 314.080 C 285.325 314.435,285.200 318.142,285.200 328.280 L 285.200 342.000 271.480 342.000 C 261.342 342.000,257.635 342.125,257.280 342.480 C 256.586 343.174,256.586 399.226,257.280 399.920 C 257.634 400.274,261.291 400.400,271.247 400.400 C 278.665 400.400,285.019 400.509,285.367 400.643 C 286.307 401.003,286.333 454.977,285.395 456.955 C 284.884 458.032,284.806 460.404,284.895 472.215 L 285.000 486.200 300.000 486.200 L 315.000 486.200 315.102 443.152 L 315.204 400.103 286.702 399.809 C 268.422 399.621,258.021 399.370,257.700 399.109 C 256.987 398.529,256.968 343.992,257.680 343.280 C 258.035 342.925,261.742 342.800,271.880 342.800 C 279.426 342.800,285.639 342.755,285.687 342.700 C 285.735 342.645,285.870 336.300,285.987 328.600 L 286.200 314.600 300.100 314.495 L 314.000 314.390 314.000 342.518 C 314.000 367.573,314.069 370.732,314.633 371.424 C 315.212 372.134,315.246 372.138,315.033 371.467 C 314.905 371.064,314.800 357.879,314.800 342.167 L 314.800 313.600 300.480 313.600 C 289.876 313.600,286.035 313.725,285.680 314.080 M227.600 428.100 C 227.600 428.265,234.044 428.400,241.920 428.400 C 252.524 428.400,256.365 428.525,256.720 428.880 C 257.407 429.567,257.407 455.633,256.720 456.320 C 256.365 456.675,252.524 456.800,241.920 456.800 C 232.525 456.800,227.600 456.939,227.600 457.205 C 227.600 457.473,232.645 457.574,242.500 457.505 L 257.400 457.400 257.505 442.889 C 257.587 431.490,257.502 428.340,257.105 428.198 C 256.223 427.881,227.599 427.787,227.600 428.100 " stroke="none" fill="#ccc42c" fill-rule="evenodd"></path><path id="path3" d="M56.250 28.850 C 56.113 29.538,56.000 36.108,56.000 43.450 L 56.000 56.800 70.150 56.800 C 77.933 56.800,84.863 56.688,85.550 56.550 L 86.800 56.300 86.800 41.950 L 86.800 27.600 71.650 27.600 L 56.500 27.600 56.250 28.850 M113.200 41.810 L 113.200 56.020 114.240 56.415 C 114.871 56.655,120.568 56.769,128.740 56.705 L 142.200 56.600 142.305 42.100 L 142.410 27.600 127.805 27.600 L 113.200 27.600 113.200 41.810 M86.262 85.900 C 86.160 86.065,92.314 86.200,99.938 86.200 L 113.800 86.200 113.800 100.000 L 113.800 113.800 99.938 113.800 C 92.314 113.800,86.160 113.935,86.262 114.100 C 86.594 114.637,113.378 114.462,113.920 113.920 C 114.607 113.233,114.607 86.767,113.920 86.080 C 113.378 85.538,86.594 85.363,86.262 85.900 M85.779 100.000 C 85.779 107.370,85.833 110.385,85.899 106.700 C 85.965 103.015,85.965 96.985,85.899 93.300 C 85.833 89.615,85.779 92.630,85.779 100.000 M27.600 129.195 L 27.600 143.600 42.205 143.600 L 56.810 143.600 56.705 129.300 L 56.600 115.000 42.100 114.895 L 27.600 114.790 27.600 129.195 M114.897 199.900 L 115.000 227.800 129.500 227.905 L 144.000 228.010 144.000 200.005 L 144.000 172.000 129.397 172.000 L 114.795 172.000 114.897 199.900 M200.400 299.386 C 200.400 313.397,200.370 313.988,199.626 314.386 C 199.137 314.648,193.916 314.800,185.426 314.800 L 172.000 314.800 172.000 328.400 L 172.000 342.000 200.000 342.000 L 228.000 342.000 228.006 328.500 C 228.010 320.701,228.172 314.747,228.391 314.400 C 228.712 313.892,230.902 313.769,242.685 313.600 L 256.600 313.400 256.705 299.100 L 256.810 284.800 228.605 284.800 L 200.400 284.800 200.400 299.386 M286.400 328.318 C 286.400 338.515,286.277 342.013,285.900 342.521 C 285.451 343.128,284.005 343.206,271.600 343.298 L 257.800 343.400 257.697 370.977 C 257.641 386.145,257.731 398.683,257.897 398.840 C 258.064 398.997,271.025 399.256,286.700 399.416 L 315.200 399.706 315.200 385.896 C 315.200 374.017,315.116 372.054,314.603 371.856 C 314.082 371.657,313.992 367.992,313.903 343.314 L 313.800 315.000 300.100 314.895 L 286.400 314.789 286.400 328.318 M114.400 350.495 C 114.401 354.513,114.520 367.115,114.666 378.500 L 114.931 399.200 128.389 399.200 C 139.376 399.200,141.990 399.304,142.624 399.767 C 143.359 400.305,143.411 401.060,143.600 414.067 L 143.800 427.800 157.175 427.905 C 165.110 427.968,170.701 427.859,170.924 427.636 C 171.155 427.405,171.185 416.702,171.000 399.631 L 170.702 372.000 157.251 371.994 C 149.482 371.990,143.547 371.828,143.200 371.609 C 142.692 371.288,142.569 369.098,142.400 357.315 L 142.200 343.400 128.300 343.295 L 114.400 343.190 114.400 350.495 M200.405 385.500 C 200.408 392.925,200.520 399.407,200.653 399.905 L 200.896 400.811 214.348 400.705 L 227.800 400.600 227.905 386.300 L 228.010 372.000 214.205 372.000 L 200.400 372.000 200.405 385.500 M227.600 442.600 L 227.600 456.410 242.100 456.305 L 256.600 456.200 256.600 442.600 L 256.600 429.000 242.100 428.895 L 227.600 428.790 227.600 442.600 " stroke="none" fill="#ac2414" fill-rule="evenodd"></path><path id="path4" d="M142.400 42.080 C 142.290 50.155,142.337 56.623,142.505 56.455 C 142.673 56.287,142.763 49.681,142.705 41.775 L 142.599 27.400 142.400 42.080 M42.000 114.792 L 56.600 115.000 56.808 129.000 L 57.016 143.000 57.108 129.180 C 57.177 118.859,57.078 115.238,56.720 114.880 C 56.361 114.521,52.608 114.423,41.820 114.492 L 27.400 114.585 42.000 114.792 M122.300 171.899 C 126.315 171.965,132.885 171.965,136.900 171.899 C 140.915 171.834,137.630 171.781,129.600 171.781 C 121.570 171.781,118.285 171.834,122.300 171.899 M114.496 199.820 C 114.423 220.877,114.514 227.554,114.880 227.920 C 115.239 228.279,118.992 228.377,129.780 228.308 L 144.200 228.215 129.600 228.008 L 115.000 227.800 114.796 200.000 L 114.592 172.200 114.496 199.820 M92.100 257.499 C 96.225 257.564,102.975 257.564,107.100 257.499 C 111.225 257.434,107.850 257.381,99.600 257.381 C 91.350 257.381,87.975 257.434,92.100 257.499 M142.924 285.300 C 142.746 285.575,142.510 292.010,142.400 299.600 L 142.200 313.400 128.545 313.505 C 117.642 313.589,114.799 313.720,114.439 314.152 C 114.121 314.537,114.020 318.813,114.095 328.847 L 114.200 343.000 128.200 343.200 L 142.200 343.400 142.400 357.315 C 142.569 369.098,142.692 371.288,143.200 371.609 C 143.547 371.828,149.482 371.990,157.251 371.994 L 170.702 372.000 171.000 399.560 C 171.163 414.718,171.159 427.363,170.990 427.660 C 170.750 428.081,170.795 428.096,171.193 427.729 C 171.603 427.349,171.634 421.844,171.351 399.529 L 171.000 371.800 157.434 371.695 C 148.237 371.623,143.697 371.446,143.334 371.146 C 142.908 370.792,142.800 367.978,142.800 357.200 C 142.800 346.422,142.692 343.608,142.266 343.254 C 141.903 342.954,137.363 342.777,128.166 342.705 L 114.600 342.600 114.495 328.847 C 114.420 319.107,114.521 314.937,114.839 314.553 C 115.199 314.120,118.040 313.989,128.945 313.905 L 142.600 313.800 142.800 299.800 C 142.910 292.100,143.146 285.575,143.324 285.300 C 143.502 285.025,143.557 284.800,143.447 284.800 C 143.337 284.800,143.102 285.025,142.924 285.300 M256.797 299.600 L 256.600 313.400 242.685 313.600 C 230.902 313.769,228.712 313.892,228.391 314.400 C 228.172 314.747,228.010 320.701,228.006 328.500 L 228.000 342.000 200.000 342.000 L 172.000 342.000 172.000 328.405 L 172.000 314.811 185.500 314.697 L 199.000 314.584 185.400 314.592 L 171.800 314.600 171.800 328.400 L 171.800 342.200 200.000 342.200 L 228.200 342.200 228.305 328.634 C 228.377 319.437,228.554 314.897,228.854 314.534 C 229.208 314.108,232.022 314.000,242.800 314.000 C 253.738 314.000,256.388 313.896,256.756 313.453 C 257.081 313.062,257.180 309.025,257.103 299.353 L 256.994 285.800 256.797 299.600 M286.267 314.667 C 286.120 314.813,286.000 320.919,286.000 328.234 C 286.000 335.549,285.891 341.819,285.757 342.167 C 285.542 342.727,283.940 342.800,271.837 342.800 C 261.733 342.800,258.035 342.925,257.680 343.280 C 256.986 343.974,256.986 398.426,257.680 399.120 C 258.038 399.478,261.659 399.577,271.980 399.508 L 285.800 399.416 271.800 399.208 L 257.800 399.000 257.800 371.200 L 257.800 343.400 271.600 343.298 C 284.005 343.206,285.451 343.128,285.900 342.521 C 286.277 342.013,286.400 338.514,286.400 328.313 L 286.400 314.780 300.200 314.890 C 307.790 314.950,314.000 314.865,314.000 314.700 C 314.000 314.329,286.637 314.297,286.267 314.667 M99.600 371.192 L 114.200 371.400 114.408 385.200 L 114.616 399.000 114.708 385.533 C 114.759 378.126,114.691 371.781,114.557 371.433 C 114.341 370.869,112.708 370.810,99.657 370.892 L 85.000 370.985 99.600 371.192 M214.395 371.897 L 227.990 372.010 228.103 385.805 L 228.216 399.600 228.208 385.700 L 228.200 371.800 214.500 371.792 L 200.800 371.784 214.395 371.897 M121.500 399.499 C 125.295 399.565,131.505 399.565,135.300 399.499 C 139.095 399.434,135.990 399.380,128.400 399.380 C 120.810 399.380,117.705 399.434,121.500 399.499 M142.751 400.274 C 143.056 400.867,143.200 405.359,143.200 414.294 C 143.200 423.985,143.326 427.566,143.680 427.920 C 144.038 428.278,147.526 428.377,157.380 428.308 L 170.600 428.216 157.200 428.008 L 143.800 427.800 143.600 414.119 C 143.441 403.242,143.288 400.333,142.851 399.919 C 142.389 399.482,142.373 399.538,142.751 400.274 M293.326 399.900 C 297.466 399.965,304.126 399.965,308.126 399.899 C 312.127 399.834,308.740 399.781,300.600 399.781 C 292.460 399.781,289.187 399.834,293.326 399.900 M242.000 428.792 L 256.600 429.000 256.600 442.600 L 256.600 456.200 242.000 456.408 L 227.400 456.615 241.820 456.708 C 252.608 456.777,256.361 456.679,256.720 456.320 C 257.407 455.633,257.407 429.567,256.720 428.880 C 256.361 428.521,252.608 428.423,241.820 428.492 L 227.400 428.585 242.000 428.792 " stroke="none" fill="#bc3c84" fill-rule="evenodd"></path></g></svg>