<svg id="svg" version="1.1" xmlns="http://www.w3.org/2000/svg" xmlns:xlink="http://www.w3.org/1999/xlink" width="400" height="492.3076923076923" viewBox="0, 0, 400,492.3076923076923"><g id="svgg"><path id="path0" d="M29.600 14.800 L 29.600 29.600 14.800 29.600 L 0.000 29.600 0.000 46.000 L 0.000 62.400 14.904 62.400 C 29.374 62.400,29.822 62.377,30.307 61.600 C 31.004 60.485,91.730 60.321,92.157 61.433 C 92.291 61.781,92.400 68.675,92.400 76.753 C 92.400 87.643,92.524 91.564,92.880 91.920 C 93.478 92.518,121.461 92.602,122.400 92.009 C 122.910 91.686,123.030 89.343,123.200 76.315 L 123.400 61.000 154.500 60.898 L 185.600 60.795 185.600 46.198 L 185.600 31.600 170.174 31.600 C 160.305 31.600,154.469 31.451,153.974 31.186 C 153.229 30.788,153.200 30.188,153.200 15.386 L 153.200 0.000 91.400 0.000 L 29.600 0.000 29.600 14.800 " stroke="none" fill="#621204" fill-rule="evenodd"></path><path id="path1" d="M154.800 15.000 L 154.800 30.000 170.200 30.000 L 185.600 30.000 185.600 15.000 L 185.600 0.000 170.200 0.000 L 154.800 0.000 154.800 15.000 M29.600 77.000 L 29.600 91.600 45.320 91.600 C 57.013 91.600,61.163 91.723,61.520 92.080 C 61.877 92.437,62.000 96.587,62.000 108.280 L 62.000 124.000 76.600 124.000 L 91.200 124.000 91.200 200.000 C 91.200 241.800,91.245 276.038,91.300 276.084 C 91.355 276.130,98.600 276.265,107.400 276.384 L 123.400 276.600 123.600 307.000 L 123.800 337.400 138.680 337.600 C 148.158 337.727,153.711 337.951,153.975 338.215 C 154.243 338.482,154.427 343.886,154.495 353.415 L 154.600 368.200 169.400 368.400 C 177.540 368.510,184.425 368.746,184.700 368.924 C 185.085 369.173,185.201 372.667,185.206 384.124 C 185.209 392.306,185.357 399.227,185.533 399.505 C 185.783 399.900,188.994 399.987,200.227 399.905 L 214.600 399.800 214.800 384.485 C 214.970 371.457,215.090 369.114,215.600 368.791 C 216.445 368.258,245.026 368.279,246.026 368.814 C 247.254 369.471,247.229 399.240,246.000 400.293 C 245.227 400.954,245.200 401.473,245.200 415.489 L 245.200 430.000 260.951 430.000 C 273.782 430.000,276.786 430.101,277.156 430.547 C 277.481 430.939,277.580 435.447,277.505 446.447 L 277.400 461.800 261.300 461.905 L 245.200 462.009 245.200 477.005 L 245.200 492.000 261.600 492.000 L 278.000 492.000 278.000 477.200 L 278.000 462.400 292.390 462.400 L 306.779 462.400 307.390 461.220 C 308.334 459.394,308.312 401.005,307.367 400.643 C 307.019 400.509,300.125 400.400,292.047 400.400 C 281.157 400.400,277.236 400.276,276.880 399.920 C 276.056 399.096,276.200 339.057,277.029 338.229 C 277.577 337.680,279.533 337.600,292.429 337.600 L 307.200 337.600 307.200 322.829 C 307.200 309.933,307.280 307.977,307.829 307.429 C 308.702 306.555,338.027 306.469,338.749 307.338 C 339.067 307.721,339.224 316.773,339.298 338.838 L 339.400 369.800 354.900 369.905 L 370.400 370.009 370.400 354.605 L 370.400 339.200 385.200 339.200 L 400.000 339.200 400.000 307.400 L 400.000 275.600 384.200 275.600 L 368.400 275.600 368.400 291.000 L 368.400 306.400 354.005 306.400 L 339.610 306.400 339.505 291.100 L 339.400 275.800 308.500 275.698 L 277.600 275.595 277.600 291.349 C 277.600 304.013,277.495 307.189,277.065 307.546 C 276.700 307.849,271.850 308.023,261.765 308.095 L 247.000 308.200 246.895 322.965 C 246.823 333.050,246.649 337.900,246.346 338.265 C 245.515 339.266,184.953 339.032,184.414 338.026 C 183.581 336.470,183.874 308.238,184.731 307.462 C 185.384 306.871,187.044 306.800,200.131 306.800 L 214.800 306.800 214.800 291.200 L 214.800 275.600 184.800 275.600 L 154.800 275.600 154.800 245.800 L 154.800 216.000 139.262 216.000 C 124.717 216.000,123.682 215.953,123.062 215.269 C 122.075 214.177,122.042 154.815,123.029 153.829 C 123.578 153.279,125.607 153.200,139.234 153.200 L 154.810 153.200 154.610 122.900 C 154.500 106.235,154.313 85.805,154.195 77.500 L 153.981 62.400 138.991 62.400 L 124.000 62.400 124.000 77.171 C 124.000 90.067,123.920 92.023,123.371 92.571 C 122.607 93.336,93.774 93.535,92.374 92.786 C 91.630 92.388,91.600 91.793,91.600 77.386 L 91.600 62.400 60.600 62.400 L 29.600 62.400 29.600 77.000 M91.200 385.200 L 91.200 400.800 106.600 400.800 L 122.000 400.800 122.000 446.400 L 122.000 492.000 138.400 492.000 L 154.800 492.000 154.800 477.200 L 154.800 462.400 169.191 462.400 L 183.582 462.400 184.196 461.462 C 184.725 460.655,184.796 458.505,184.705 445.962 L 184.600 431.400 169.285 431.200 C 156.257 431.030,153.914 430.910,153.591 430.400 C 153.371 430.051,153.210 423.658,153.206 415.105 L 153.200 400.410 137.900 400.305 L 122.600 400.200 122.495 384.900 L 122.390 369.600 106.795 369.600 L 91.200 369.600 91.200 385.200 " stroke="none" fill="#fcfc04" fill-rule="evenodd"></path><path id="path2" d="M153.291 15.286 C 153.203 30.236,153.227 30.786,153.974 31.186 C 154.478 31.456,160.162 31.568,170.274 31.509 L 185.800 31.418 170.133 31.209 C 161.516 31.094,154.316 30.850,154.133 30.667 C 153.950 30.484,153.706 23.464,153.591 15.067 L 153.381 -0.200 153.291 15.286 M30.389 61.413 C 29.943 61.951,30.013 61.975,30.966 61.613 C 33.121 60.794,91.476 61.068,92.010 61.900 C 92.431 62.554,92.445 62.552,92.230 61.867 C 92.104 61.464,92.000 61.059,92.000 60.967 C 92.000 60.394,30.868 60.836,30.389 61.413 M123.467 61.067 C 122.928 61.605,123.219 62.082,123.794 61.605 C 124.261 61.218,130.966 61.175,154.994 61.409 C 177.705 61.630,185.600 61.590,185.600 61.253 C 185.600 60.753,123.965 60.568,123.467 61.067 M29.600 107.803 C 29.600 116.015,29.709 123.019,29.843 123.367 C 30.058 123.929,31.808 124.000,45.443 124.000 L 60.800 124.000 60.800 108.600 L 60.800 93.200 45.900 93.169 C 37.705 93.153,30.685 93.078,30.300 93.005 C 29.643 92.879,29.600 93.797,29.600 107.803 M124.000 184.600 L 124.000 214.800 139.400 214.800 L 154.800 214.800 154.800 184.600 L 154.800 154.400 139.400 154.400 L 124.000 154.400 124.000 184.600 M216.000 291.586 C 216.000 306.981,215.971 307.587,215.226 307.986 C 214.733 308.250,209.142 308.400,199.821 308.400 L 185.190 308.400 185.295 322.900 L 185.400 337.400 215.400 337.400 L 245.400 337.400 245.505 322.635 C 245.577 312.550,245.751 307.700,246.054 307.335 C 246.410 306.906,249.455 306.800,261.449 306.800 L 276.400 306.800 276.400 291.200 L 276.400 275.600 246.200 275.600 L 216.000 275.600 216.000 291.586 M91.200 323.000 L 91.200 368.400 106.971 368.400 C 120.776 368.400,122.821 368.478,123.371 369.029 C 123.920 369.577,124.000 371.533,124.000 384.429 L 124.000 399.200 138.986 399.200 C 153.393 399.200,153.988 399.230,154.386 399.974 C 154.650 400.467,154.800 406.056,154.800 415.374 L 154.800 430.000 169.413 430.000 C 182.155 430.000,184.055 429.922,184.260 429.388 C 184.389 429.052,184.338 415.507,184.147 399.288 L 183.800 369.800 169.035 369.695 C 158.950 369.623,154.100 369.449,153.735 369.146 C 153.306 368.790,153.200 365.780,153.200 353.965 L 153.200 339.228 138.185 339.114 C 125.359 339.017,123.115 338.913,122.791 338.400 C 122.561 338.036,122.410 325.955,122.406 307.700 L 122.400 277.600 106.800 277.600 L 91.200 277.600 91.200 323.000 M308.400 323.386 C 308.400 337.793,308.370 338.388,307.626 338.786 C 307.133 339.050,301.543 339.200,292.224 339.200 L 277.595 339.200 277.697 369.100 L 277.800 399.000 308.700 399.102 L 339.600 399.205 339.600 384.699 C 339.600 370.626,339.576 370.178,338.800 369.693 C 338.011 369.200,338.000 368.760,338.000 338.797 L 338.000 308.400 323.200 308.400 L 308.400 308.400 308.400 323.386 M216.272 369.862 C 215.936 370.197,215.918 398.653,216.252 399.900 L 216.493 400.800 230.822 400.800 L 245.151 400.800 245.393 399.100 C 245.526 398.165,245.583 391.190,245.518 383.600 L 245.400 369.800 230.972 369.695 C 223.036 369.637,216.421 369.712,216.272 369.862 M245.200 446.000 L 245.200 460.809 260.700 460.705 L 276.200 460.600 276.200 446.000 L 276.200 431.400 260.700 431.295 L 245.200 431.191 245.200 446.000 " stroke="none" fill="#ac2414" fill-rule="evenodd"></path><path id="path3" d="M154.095 15.300 L 154.200 30.600 169.900 30.705 C 180.289 30.774,185.600 30.672,185.600 30.405 C 185.600 30.139,180.318 30.000,170.200 30.000 L 154.800 30.000 154.800 15.000 C 154.800 5.149,154.661 0.000,154.395 0.000 C 154.127 0.000,154.026 5.178,154.095 15.300 M30.400 62.000 C 30.010 62.252,40.603 62.390,60.700 62.394 L 91.600 62.400 91.600 77.386 C 91.600 91.793,91.630 92.388,92.374 92.786 C 93.774 93.535,122.607 93.336,123.371 92.571 C 123.920 92.023,124.000 90.067,124.000 77.171 L 124.000 62.400 139.000 62.400 L 154.000 62.400 154.000 77.026 C 154.000 86.344,154.150 91.933,154.414 92.426 C 154.812 93.171,155.412 93.200,170.214 93.200 L 185.600 93.200 185.600 77.398 L 185.600 61.595 154.500 61.698 L 123.400 61.800 123.295 76.565 C 123.223 86.650,123.049 91.500,122.746 91.865 C 122.133 92.604,93.616 92.656,92.880 91.920 C 92.525 91.565,92.400 87.732,92.400 77.153 C 92.400 69.295,92.291 62.581,92.157 62.233 C 91.870 61.483,31.551 61.256,30.400 62.000 M29.600 92.000 C 29.600 92.260,35.050 92.400,45.151 92.400 C 57.649 92.400,60.789 92.505,61.146 92.935 C 61.450 93.302,61.625 98.313,61.700 108.835 L 61.810 124.200 61.905 108.380 C 61.976 96.501,61.880 92.440,61.520 92.080 C 60.899 91.459,29.600 91.380,29.600 92.000 M123.029 153.829 C 121.982 154.875,122.082 214.388,123.131 215.338 C 123.997 216.121,154.800 216.376,154.800 215.600 C 154.800 215.340,149.427 215.200,139.480 215.200 C 128.098 215.200,124.037 215.077,123.680 214.720 C 122.985 214.025,122.985 155.175,123.680 154.480 C 124.037 154.123,128.098 154.000,139.480 154.000 C 149.427 154.000,154.800 153.860,154.800 153.600 C 154.800 152.852,123.782 153.075,123.029 153.829 M214.800 291.200 L 214.800 306.800 200.062 306.800 C 186.292 306.800,185.281 306.848,184.662 307.531 C 183.868 308.409,183.639 336.578,184.414 338.026 C 184.953 339.032,245.515 339.266,246.346 338.265 C 246.649 337.900,246.823 333.050,246.895 322.965 L 247.000 308.200 261.765 308.095 C 271.850 308.023,276.700 307.849,277.065 307.546 C 277.732 306.993,277.869 275.600,277.205 275.600 C 276.953 275.600,276.771 281.293,276.705 291.300 L 276.600 307.000 261.733 307.200 C 253.556 307.310,246.716 307.550,246.533 307.733 C 246.350 307.916,246.110 314.756,246.000 322.933 L 245.800 337.800 215.400 337.800 L 185.000 337.800 184.895 323.247 C 184.820 312.839,184.919 308.538,185.244 308.147 C 185.613 307.703,188.416 307.600,200.169 307.600 C 210.891 307.600,214.764 307.476,215.120 307.120 C 215.741 306.499,215.819 275.600,215.200 275.600 C 214.940 275.600,214.800 281.067,214.800 291.200 M91.200 276.448 C 91.200 277.027,95.010 277.191,108.500 277.196 L 122.800 277.200 122.800 307.124 C 122.800 330.436,122.910 337.196,123.300 337.722 C 123.751 338.330,125.254 338.406,138.600 338.498 L 153.400 338.600 153.600 353.515 C 153.770 366.187,153.890 368.487,154.400 368.809 C 154.749 369.029,161.061 369.190,169.476 369.194 C 177.438 369.197,184.035 369.335,184.136 369.500 C 184.236 369.665,184.382 383.390,184.459 400.000 L 184.600 430.200 169.847 430.305 C 159.291 430.380,154.938 430.281,154.547 429.956 C 154.103 429.587,154.000 426.778,154.000 415.000 C 154.000 403.381,153.894 400.410,153.465 400.054 C 153.100 399.751,148.250 399.577,138.165 399.505 L 123.400 399.400 123.295 384.635 C 123.223 374.550,123.049 369.700,122.746 369.335 C 122.189 368.664,91.200 368.532,91.200 369.200 C 91.200 369.460,96.665 369.600,106.795 369.600 L 122.390 369.600 122.495 384.900 L 122.600 400.200 137.900 400.305 L 153.200 400.410 153.206 415.105 C 153.210 423.658,153.371 430.051,153.591 430.400 C 153.914 430.910,156.257 431.030,169.285 431.200 L 184.600 431.400 184.705 445.962 C 184.795 458.410,184.722 460.659,184.205 461.448 C 183.692 462.231,183.600 464.636,183.600 477.186 L 183.600 492.000 200.003 492.000 L 216.407 492.000 216.207 446.300 C 216.097 421.165,215.961 393.580,215.904 385.000 L 215.800 369.400 230.800 369.400 L 245.800 369.400 245.905 384.317 C 245.974 394.146,245.867 399.501,245.591 400.017 C 245.085 400.962,245.319 401.024,246.171 400.171 C 247.246 399.097,247.109 369.393,246.026 368.814 C 245.026 368.279,216.445 368.258,215.600 368.791 C 215.090 369.114,214.970 371.457,214.800 384.485 L 214.600 399.800 200.227 399.905 C 188.994 399.987,185.783 399.900,185.533 399.505 C 185.357 399.227,185.209 392.306,185.206 384.124 C 185.201 372.667,185.085 369.173,184.700 368.924 C 184.425 368.746,177.540 368.510,169.400 368.400 L 154.600 368.200 154.495 353.415 C 154.427 343.886,154.243 338.482,153.975 338.215 C 153.711 337.951,148.158 337.727,138.680 337.600 L 123.800 337.400 123.697 307.086 C 123.617 283.355,123.487 276.734,123.097 276.594 C 122.317 276.313,91.200 276.170,91.200 276.448 M307.829 307.429 C 307.280 307.977,307.200 309.933,307.200 322.829 L 307.200 337.600 292.429 337.600 C 279.533 337.600,277.577 337.680,277.029 338.229 C 276.200 339.057,276.056 399.096,276.880 399.920 C 277.236 400.276,281.157 400.400,292.047 400.400 C 300.125 400.400,307.019 400.509,307.367 400.643 C 308.279 400.993,308.310 459.607,307.400 461.200 C 306.933 462.016,306.826 464.937,306.814 477.100 L 306.800 492.000 323.200 492.000 L 339.600 492.000 339.600 446.052 L 339.600 400.103 308.700 399.808 C 291.705 399.646,277.665 399.432,277.500 399.333 C 276.958 399.007,277.135 339.425,277.680 338.880 C 278.036 338.524,281.902 338.400,292.600 338.400 C 303.298 338.400,307.164 338.276,307.520 337.920 C 307.875 337.565,308.002 333.695,308.006 323.020 C 308.009 315.089,308.157 308.373,308.333 308.095 C 308.584 307.700,311.874 307.613,323.427 307.695 L 338.200 307.800 338.400 338.480 C 338.528 358.128,338.744 369.304,339.000 369.560 C 339.592 370.152,339.339 308.049,338.746 307.335 C 338.027 306.469,308.700 306.557,307.829 307.429 M245.200 430.395 C 245.200 430.647,250.893 430.829,260.900 430.895 L 276.600 431.000 276.600 446.000 L 276.600 461.000 260.900 461.105 C 250.773 461.172,245.200 461.351,245.200 461.609 C 245.200 461.871,250.766 461.973,261.300 461.905 L 277.400 461.800 277.505 446.447 C 277.580 435.447,277.481 430.939,277.156 430.547 C 276.594 429.870,245.200 429.721,245.200 430.395 " stroke="none" fill="#ccc42c" fill-rule="evenodd"></path><path id="path4" d="M153.781 15.000 C 153.781 23.360,153.834 26.837,153.899 22.726 C 153.964 18.616,153.964 11.776,153.900 7.526 C 153.835 3.277,153.782 6.640,153.781 15.000 M162.274 31.099 C 166.494 31.164,173.514 31.164,177.874 31.100 C 182.233 31.035,178.780 30.982,170.200 30.982 C 161.620 30.982,158.053 31.035,162.274 31.099 M46.500 61.500 C 54.805 61.560,68.395 61.560,76.700 61.500 C 85.005 61.439,78.210 61.390,61.600 61.390 C 44.990 61.390,38.195 61.439,46.500 61.500 M131.300 61.499 C 135.425 61.564,142.175 61.564,146.300 61.499 C 150.425 61.434,147.050 61.381,138.800 61.381 C 130.550 61.381,127.175 61.434,131.300 61.499 M29.767 92.700 C 30.187 93.120,29.291 93.095,45.800 93.150 L 60.800 93.200 60.800 108.600 C 60.800 118.600,60.940 124.000,61.200 124.000 C 61.819 124.000,61.741 93.501,61.120 92.880 C 60.763 92.523,56.643 92.400,45.053 92.400 C 36.481 92.400,29.602 92.535,29.767 92.700 M123.680 154.480 C 122.926 155.234,122.992 214.129,123.747 214.756 C 124.139 215.081,128.640 215.179,139.647 215.100 L 155.000 214.990 139.500 214.895 L 124.000 214.800 124.000 184.605 L 124.000 154.409 139.500 154.300 L 155.000 154.190 139.580 154.095 C 128.012 154.024,124.040 154.120,123.680 154.480 M215.695 291.020 C 215.625 302.526,215.474 306.766,215.120 307.120 C 214.764 307.476,210.891 307.600,200.169 307.600 C 188.416 307.600,185.613 307.703,185.244 308.147 C 184.919 308.538,184.820 312.839,184.895 323.247 L 185.000 337.800 215.400 337.800 L 245.800 337.800 246.000 322.933 C 246.110 314.756,246.350 307.916,246.533 307.733 C 246.716 307.550,253.556 307.310,261.733 307.200 L 276.600 307.000 276.607 291.300 L 276.614 275.600 276.502 291.200 L 276.391 306.800 261.444 306.800 C 249.454 306.800,246.410 306.906,246.054 307.335 C 245.751 307.700,245.577 312.550,245.505 322.635 L 245.400 337.400 215.400 337.400 L 185.400 337.400 185.295 322.900 L 185.190 308.400 199.919 308.400 C 211.071 308.400,214.813 308.279,215.329 307.900 C 215.955 307.441,216.002 306.090,215.901 291.400 L 215.791 275.400 215.695 291.020 M91.200 277.148 C 91.200 277.476,95.463 277.600,106.800 277.600 L 122.400 277.600 122.406 307.700 C 122.410 325.955,122.561 338.036,122.791 338.400 C 123.115 338.913,125.359 339.017,138.185 339.114 L 153.200 339.228 153.200 353.965 C 153.200 365.780,153.306 368.790,153.735 369.146 C 154.100 369.449,158.950 369.623,169.035 369.695 L 183.800 369.800 184.147 399.288 C 184.338 415.507,184.389 429.052,184.260 429.388 C 184.055 429.922,182.155 430.000,169.413 430.000 L 154.800 430.000 154.800 415.374 C 154.800 406.056,154.650 400.467,154.386 399.974 C 153.988 399.230,153.393 399.200,138.986 399.200 L 124.000 399.200 124.000 384.429 C 124.000 371.533,123.920 369.577,123.371 369.029 C 122.818 368.475,120.850 368.411,106.871 368.495 L 91.000 368.590 106.565 368.700 C 117.149 368.774,122.299 368.950,122.660 369.250 C 123.080 369.598,123.212 372.794,123.295 384.545 L 123.400 399.400 138.165 399.505 C 148.250 399.577,153.100 399.751,153.465 400.054 C 153.894 400.410,154.000 403.381,154.000 415.000 C 154.000 426.778,154.103 429.587,154.547 429.956 C 154.938 430.281,159.291 430.380,169.847 430.305 L 184.600 430.200 184.459 400.000 C 184.382 383.390,184.236 369.665,184.136 369.500 C 184.035 369.335,177.438 369.197,169.476 369.194 C 161.061 369.190,154.749 369.029,154.400 368.809 C 153.890 368.487,153.770 366.187,153.600 353.515 L 153.400 338.600 138.600 338.498 C 125.254 338.406,123.751 338.330,123.300 337.722 C 122.910 337.196,122.800 330.436,122.800 307.124 L 122.800 277.200 108.500 277.196 C 100.635 277.193,93.525 277.080,92.700 276.943 C 91.705 276.779,91.200 276.848,91.200 277.148 M308.245 308.228 C 308.110 308.579,308.000 315.295,308.000 323.153 C 308.000 333.732,307.875 337.565,307.520 337.920 C 307.164 338.276,303.298 338.400,292.600 338.400 C 281.902 338.400,278.036 338.524,277.680 338.880 C 277.135 339.425,276.958 399.007,277.500 399.333 C 278.237 399.776,339.600 400.093,339.600 399.654 C 339.600 399.327,331.223 399.177,308.700 399.102 L 277.800 399.000 277.697 369.100 L 277.595 339.200 292.224 339.200 C 301.543 339.200,307.133 339.050,307.626 338.786 C 308.370 338.388,308.400 337.793,308.400 323.386 L 308.400 308.400 323.200 308.400 L 338.000 308.400 338.000 338.751 C 338.000 366.777,338.052 369.144,338.677 369.651 C 339.261 370.125,339.302 370.118,338.977 369.600 C 338.754 369.246,338.518 356.474,338.400 338.400 L 338.200 307.800 323.345 307.695 C 310.059 307.601,308.463 307.658,308.245 308.228 M215.871 369.462 C 215.503 369.831,215.536 399.680,215.906 400.262 C 216.068 400.517,216.200 393.767,216.200 385.262 L 216.200 369.800 230.800 369.800 L 245.400 369.800 245.400 385.072 C 245.400 393.472,245.537 400.099,245.705 399.799 C 245.873 399.499,245.963 392.536,245.905 384.327 L 245.800 369.400 230.971 369.295 C 222.816 369.238,216.021 369.313,215.871 369.462 M260.600 431.191 L 276.200 431.400 276.200 446.000 L 276.200 460.600 260.600 460.809 L 245.000 461.019 260.800 461.009 L 276.600 461.000 276.600 446.000 L 276.600 431.000 260.800 430.991 L 245.000 430.981 260.600 431.191 " stroke="none" fill="#d83c18" fill-rule="evenodd"></path></g></svg>